<?xml version="1.0" encoding="UTF-8"?>
<svg id="Layer_1" xmlns="http://www.w3.org/2000/svg" version="1.1" viewBox="0 0 886.47 152.77">
  <!-- Generator: Adobe Illustrator 29.1.0, SVG Export Plug-In . SVG Version: 2.1.0 Build 142)  -->
  <defs>
    <style>
      .st0 {
        fill: #3486ff;
      }
    </style>
  </defs>
  <g>
    <ellipse class="st0" cx="17.61" cy="76.43" rx="7.38" ry="44.58"/>
    <ellipse class="st0" cx="3.41" cy="76.43" rx="3.41" ry="25.84"/>
    <path class="st0" d="M131.19,28.96c-3.21,0-6.16,4.01-8.47,10.69-.34.98-1.76.89-1.96-.13-3.31-17.01-8.86-28.16-15.13-28.16-4.81,0-9.18,6.54-12.46,17.23-.31,1-1.73.95-1.96-.07C87.26,11.13,81.2,0,74.4,0c-5.92,0-11.29,8.44-15.19,22.11-.26.92-1.54.99-1.91.11-2.91-6.86-6.41-10.86-10.17-10.86-10.15,0-18.37,29.11-18.37,65.03s8.23,65.03,18.37,65.03c3.76,0,7.25-4,10.17-10.86.37-.88,1.65-.81,1.91.11,3.9,13.67,9.26,22.11,15.19,22.11,6.8,0,12.86-11.13,16.82-28.52.23-1.02,1.65-1.07,1.96-.07,3.27,10.7,7.65,17.23,12.46,17.23,6.28,0,11.82-11.15,15.13-28.16.2-1.02,1.62-1.12,1.96-.13,2.31,6.68,5.25,10.69,8.47,10.69,7.4,0,13.4-21.23,13.4-47.42s-6-47.42-13.4-47.42ZM84.7,76.91c-4.91,0-8.89-6.33-8.89-14.15s3.98-14.15,8.89-14.15,8.89,6.33,8.89,14.15-3.98,14.15-8.89,14.15ZM111.36,76.91c-4.91,0-8.89-6.33-8.89-14.15s3.98-14.15,8.89-14.15,8.89,6.33,8.89,14.15-3.98,14.15-8.89,14.15Z"/>
  </g>
  <g>
    <path d="M173.89,122.22V30.66h19.1v74.83h47.13v16.73h-66.24Z"/>
    <path d="M275.5,123.46c-9.42,0-16.65-2.49-21.7-7.46-5.05-4.97-7.57-11.75-7.57-20.35v-41.26h18.76v37.64c0,4.9,1.26,8.57,3.79,11.02s6.31,3.67,11.36,3.67,9.21-1.32,12.04-3.96c2.83-2.64,4.24-6.4,4.24-11.3v-37.07h18.76v49.28h9.27v18.54h-18.99v-11.08h-4.75c-2.71,4-6.01,7.05-9.89,9.16-3.88,2.11-8.99,3.17-15.32,3.17Z"/>
    <path d="M366.72,123.58c-7.08,0-13.28-1.45-18.59-4.35-5.31-2.9-9.46-6.99-12.43-12.26-2.98-5.27-4.46-11.49-4.46-18.65s1.47-13.38,4.41-18.65c2.94-5.27,7.08-9.36,12.43-12.26,5.35-2.9,11.57-4.35,18.65-4.35,8.97,0,16.35,2.26,22.15,6.78,5.8,4.52,9.46,10.74,10.97,18.65h-18.88c-.98-2.94-2.68-5.2-5.09-6.78-2.41-1.58-5.46-2.37-9.16-2.37-5.05,0-9.1,1.66-12.15,4.97-3.05,3.32-4.58,7.99-4.58,14.02s1.54,10.7,4.63,14.01c3.09,3.32,7.12,4.97,12.09,4.97,7.99,0,12.85-3.39,14.58-10.17h18.88c-1.36,8.29-4.94,14.77-10.74,19.44-5.8,4.67-13.38,7.01-22.72,7.01Z"/>
    <path d="M418.14,47.73c-2.86,0-5.29-1-7.29-2.99-2-2-2.99-4.43-2.99-7.29s1-5.29,2.99-7.29,4.43-3,7.29-3,5.29,1,7.29,3c2,2,3,4.43,3,7.29s-1,5.29-3,7.29-4.43,2.99-7.29,2.99ZM408.76,122.22V54.4h18.76v67.82h-18.76Z"/>
    <path d="M471.5,123.58c-6.93,0-12.83-1.47-17.69-4.41-4.86-2.94-8.53-7.07-11.02-12.38-2.49-5.31-3.73-11.47-3.73-18.48s1.21-13.28,3.62-18.59c2.41-5.31,5.93-9.42,10.57-12.32,4.64-2.9,10.19-4.35,16.67-4.35,4.97,0,9.25.92,12.83,2.77,3.58,1.85,6.35,4.46,8.31,7.86h.45V27.27h18.76v76.41h9.27v18.54h-18.99v-11.08h-4.75c-2.41,3.92-5.63,6.97-9.66,9.16-4.03,2.19-8.91,3.28-14.64,3.28ZM475,107.3c5.05,0,9.06-1.41,12.04-4.24,2.97-2.83,4.46-6.73,4.46-11.7v-6.1c0-4.97-1.49-8.87-4.46-11.7-2.98-2.83-6.99-4.24-12.04-4.24-5.73,0-10.02,1.7-12.89,5.09-2.86,3.39-4.29,8.03-4.29,13.9s1.43,10.51,4.29,13.9c2.86,3.39,7.16,5.09,12.89,5.09Z"/>
    <path d="M551.97,123.46c-7.99,0-14.24-1.94-18.77-5.82-4.52-3.88-6.78-8.99-6.78-15.32,0-6.7,2.34-11.87,7.01-15.49,4.67-3.62,11.38-5.43,20.12-5.43h19.44v-2.6c0-7.31-4.37-10.96-13.11-10.96-7.61,0-12.21,2.64-13.79,7.91h-18.65c1.51-7.46,5.01-13.11,10.51-16.96,5.5-3.84,12.81-5.77,21.93-5.77,10.1,0,17.8,2.26,23.12,6.78,5.31,4.52,7.97,11.12,7.97,19.78v24.08h8.82v18.54h-18.99v-11.08h-4.75c-2.34,3.92-5.46,6.95-9.38,9.1-3.92,2.15-8.82,3.22-14.69,3.22ZM554.8,109.22c3.54,0,6.67-.64,9.38-1.92,2.71-1.28,4.86-2.99,6.44-5.14,1.58-2.15,2.37-4.58,2.37-7.29v-1.02h-18.54c-6.78,0-10.17,2.53-10.17,7.57,0,2.49.94,4.41,2.83,5.77,1.88,1.36,4.45,2.03,7.69,2.03Z"/>
    <path d="M599.85,122.22c-1.26,0-1.9-.45-1.9-1.36,0-.99.9-1.63,2.71-1.9l2.71-.41c1.99-.27,3.37-.75,4.14-1.42.77-.68,1.33-1.97,1.7-3.87l18.45-79.75c.45-1.9.45-3.17,0-3.8-.45-.63-1.58-1.13-3.39-1.49l-2.71-.54c-1.18-.27-1.76-.77-1.76-1.49,0-1.08.81-1.63,2.44-1.63h45.3c2.35,0,3.3,1.04,2.85,3.12l-4.2,22.52c-.27,1.54-1,2.31-2.17,2.31-1.27,0-1.81-.59-1.63-1.76l.41-4.75c.45-4.61.07-8.23-1.15-10.85-1.22-2.62-3.03-4.48-5.43-5.56-2.4-1.09-5.18-1.63-8.34-1.63-3.62,0-6.24.52-7.87,1.56-1.63,1.04-2.76,2.87-3.39,5.49l-7.46,32.69c-.27,1.27.22,1.9,1.49,1.9h6.92c3.98,0,6.87-2.13,8.68-6.38l2.98-6.78c.45-1.17,1.17-1.76,2.17-1.76.54,0,.97.2,1.29.61.32.41.38.97.2,1.7l-7.05,30.52c-.45,1.54-1.22,2.31-2.31,2.31s-1.63-.59-1.63-1.76l.14-6.64c.09-3.17-.3-5.24-1.15-6.24-.86-.99-2.33-1.49-4.41-1.49h-6.78c-1.36,0-2.17.63-2.44,1.9l-7.87,34.05c-.72,3.25-.41,5.61.95,7.05,1.36,1.45,4.25,2.17,8.68,2.17,2.71,0,5.4-.43,8.07-1.29,2.67-.86,5.2-2.51,7.6-4.95,2.39-2.44,4.59-5.97,6.58-10.58l3.25-7.6c.45-1.17,1.17-1.76,2.17-1.76,1.36,0,1.81.77,1.36,2.31l-6.92,24.14c-.54,2.08-1.9,3.12-4.07,3.12h-47.2Z"/>
    <path d="M667.54,123.58c-2.53,0-4.45-.7-5.77-2.1-1.31-1.4-1.97-3.23-1.97-5.49,0-2.08.52-3.8,1.56-5.16,1.04-1.36,2.42-2.03,4.14-2.03,1.45,0,2.51.36,3.19,1.09.68.72,1.2,1.56,1.56,2.51.36.95.77,1.79,1.22,2.51.45.72,1.17,1.09,2.17,1.09,2.26,0,4.68-2.44,7.25-7.33,2.58-4.88,5.04-11.12,7.39-18.72.45-1.26.72-2.39.81-3.39.09-.99.09-2.12,0-3.39l-1.09-16.82c-.09-2.35-.5-4-1.22-4.95-.72-.95-1.63-1.43-2.71-1.43-1.99,0-3.89,1.2-5.7,3.59-1.81,2.4-3.3,6.94-4.48,13.63-.27,1.18-.86,1.76-1.76,1.76-1.27,0-1.76-.82-1.49-2.44,1.08-6.24,2.6-11.12,4.54-14.65,1.94-3.53,4.02-6.01,6.24-7.46,2.22-1.44,4.27-2.17,6.17-2.17,2.8,0,5,.97,6.58,2.91,1.58,1.95,2.51,5.27,2.78,9.97l.41,6.37c.09.54.34.84.75.88.41.05.75-.2,1.02-.75,3.25-7.14,6.4-12.16,9.43-15.05,3.03-2.89,6.22-4.34,9.56-4.34,2.53,0,4.45.7,5.76,2.1,1.31,1.4,1.97,3.23,1.97,5.49,0,2.08-.5,3.8-1.49,5.16-1,1.36-2.4,2.03-4.21,2.03-1.45,0-2.51-.36-3.19-1.09-.68-.72-1.2-1.56-1.56-2.51-.36-.95-.75-1.79-1.15-2.51-.41-.72-1.06-1.09-1.97-1.09-1.36,0-2.89,1.02-4.61,3.05-1.72,2.03-3.35,4.72-4.88,8.07-1.54,3.35-2.8,7.05-3.8,11.12-.27,1.27-.43,2.4-.47,3.39-.05,1-.02,2.13.07,3.39l1.22,19.8c.18,2.8.68,4.79,1.49,5.97.81,1.18,1.9,1.76,3.25,1.76,1.72,0,3.48-1.29,5.29-3.87,1.81-2.58,3.3-7.21,4.48-13.9.27-1.17.9-1.76,1.9-1.76,1.09,0,1.54.82,1.36,2.44-.82,6.15-2.1,10.99-3.87,14.51-1.76,3.53-3.68,6.01-5.77,7.46-2.08,1.44-4.07,2.17-5.97,2.17-3.35,0-5.92-1.06-7.73-3.19-1.81-2.12-2.9-5.76-3.26-10.92l-.68-10.17c-.09-.63-.32-.95-.68-.95s-.68.27-.95.81l-2.44,5.97c-5.16,12.39-11.39,18.58-18.72,18.58Z"/>
    <path d="M736.17,123.44c-3.26,0-5.79-1.4-7.6-4.21-1.81-2.8-2.71-6.92-2.71-12.34s.72-10.33,2.17-15.53c1.45-5.2,3.44-10.15,5.97-14.85,2.53-4.7,5.4-8.86,8.61-12.48,3.21-3.62,6.6-6.49,10.17-8.61,3.57-2.12,7.12-3.19,10.65-3.19,1.72,0,3.35.34,4.88,1.02,1.54.68,2.8,1.74,3.8,3.19.54.82,1.09,1.22,1.63,1.22s1.09-.41,1.63-1.22c.99-1.44,1.81-2.37,2.44-2.78.63-.41,1.22-.61,1.76-.61,1.17,0,1.63.63,1.36,1.9l-12.07,51.95c-1.36,5.88-.45,8.82,2.71,8.82,2.08,0,3.95-1.4,5.63-4.2,1.67-2.8,3.37-7.14,5.09-13.02.27-.99.86-1.49,1.76-1.49.63,0,1.04.27,1.22.81.18.54.18,1.18,0,1.9-1.72,8.5-4.02,14.58-6.92,18.24-2.9,3.66-6.37,5.49-10.44,5.49-3.53,0-6.04-1.49-7.53-4.48-1.49-2.98-1.65-7.05-.47-12.21l1.76-7.46c.18-.63.07-.99-.34-1.08s-.75.13-1.02.68c-4.98,9.13-9.38,15.51-13.23,19.13-3.84,3.62-7.48,5.43-10.92,5.43ZM739.56,116.52c2.17,0,4.56-1.31,7.19-3.94,2.62-2.62,5.22-6.01,7.8-10.17,2.58-4.16,4.95-8.63,7.12-13.43,2.17-4.79,3.91-9.4,5.22-13.84,1.31-4.43,1.97-8.18,1.97-11.26,0-5.51-1.94-8.27-5.83-8.27-2.35,0-4.84,1.06-7.46,3.19-2.62,2.13-5.13,5-7.53,8.61-2.4,3.62-4.57,7.71-6.51,12.28-1.94,4.57-3.51,9.31-4.68,14.24-1.18,4.93-1.76,9.74-1.76,14.44,0,3.17.38,5.31,1.15,6.44.77,1.13,1.87,1.7,3.32,1.7Z"/>
    <path d="M868.55,123.44c-3.26,0-5.7-1.36-7.32-4.07-1.63-2.71-1.72-6.92-.27-12.62l10.44-39.33c.99-3.53,1.15-5.97.47-7.32-.68-1.36-1.65-2.03-2.91-2.03-1.81,0-3.89,1.24-6.24,3.73-2.35,2.49-4.82,5.86-7.39,10.1-2.58,4.25-5.09,9.09-7.53,14.51-2.44,5.43-4.7,11.08-6.78,16.96-2.08,5.88-3.8,11.67-5.15,17.36-.27,1-.91,1.49-1.9,1.49h-5.29c-1.27,0-1.76-.59-1.49-1.76l12.48-53.04c.82-3.53.93-5.97.34-7.32s-1.52-2.03-2.78-2.03c-1.72,0-3.75,1.24-6.1,3.73-2.35,2.49-4.79,5.86-7.32,10.1-2.53,4.25-5.02,9.09-7.46,14.51-2.44,5.43-4.7,11.08-6.78,16.96-2.08,5.88-3.75,11.67-5.02,17.36-.27,1-.9,1.49-1.9,1.49h-5.56c-1.27,0-1.76-.59-1.49-1.76l12.89-54.12c.45-1.99.52-3.55.2-4.68-.32-1.13-1.15-1.7-2.51-1.7-1.63,0-3.41,1.2-5.36,3.59-1.94,2.4-4.14,6.94-6.58,13.63-.36,1.18-.99,1.76-1.9,1.76-1.36,0-1.72-.82-1.09-2.44,1.99-6.24,4.09-11.12,6.31-14.65,2.21-3.53,4.45-6.01,6.71-7.46,2.26-1.44,4.34-2.17,6.24-2.17,2.98,0,5.11,1.11,6.37,3.32,1.26,2.22,1.31,5.86.14,10.92l-3.39,14.65c-.09.63.05,1,.41,1.09.36.09.68-.14.95-.68,5.24-10.85,9.99-18.45,14.24-22.79,4.25-4.34,8.14-6.51,11.67-6.51,3.34,0,5.72,1.36,7.12,4.07,1.4,2.71,1.47,6.87.2,12.48l-2.85,12.34c-.09.63.04,1,.41,1.09.36.09.68-.14.95-.68,3.44-7.32,6.67-13.13,9.7-17.43,3.03-4.29,5.9-7.35,8.61-9.16,2.71-1.81,5.24-2.71,7.59-2.71,3.35,0,5.79,1.36,7.33,4.07,1.54,2.71,1.54,6.87,0,12.48l-10.31,39.34c-.64,2.53-.68,4.43-.14,5.7.54,1.27,1.54,1.9,2.98,1.9,1.81,0,3.59-1.2,5.36-3.59,1.76-2.4,3.6-6.94,5.49-13.63.27-.99.86-1.49,1.76-1.49.72,0,1.15.27,1.29.81.14.54.11,1.18-.07,1.9-1.72,6.15-3.57,10.96-5.56,14.44-1.99,3.48-4,5.9-6.04,7.26-2.03,1.36-4.09,2.03-6.17,2.03Z"/>
  </g>
</svg>