<?xml version="1.0" encoding="UTF-8"?>
<svg id="Layer_1" xmlns="http://www.w3.org/2000/svg" version="1.1" viewBox="0 0 687.34 532.94">
  <!-- Generator: Adobe Illustrator 29.1.0, SVG Export Plug-In . SVG Version: 2.1.0 Build 142)  -->
  <defs>
    <style>
      .st0 {
        fill: #0a253b;
      }

      .st1 {
        fill: #3486ff;
      }
    </style>
  </defs>
  <g>
    <ellipse class="st1" cx="58.84" cy="255.41" rx="24.67" ry="148.99"/>
    <ellipse class="st1" cx="11.39" cy="255.41" rx="11.39" ry="86.36"/>
    <path class="st1" d="M438.43,96.8c-10.74,0-20.58,13.4-28.3,35.71-1.14,3.29-5.87,2.97-6.53-.45-11.07-56.84-29.59-94.1-50.58-94.1-16.07,0-30.69,21.84-41.63,57.59-1.02,3.34-5.78,3.17-6.55-.23C291.62,37.2,271.35,0,248.63,0c-19.79,0-37.72,28.21-50.75,73.89-.88,3.08-5.13,3.3-6.38.35-9.73-22.92-21.41-36.28-33.97-36.28-33.91,0-61.4,97.3-61.4,217.32s27.49,217.32,61.4,217.32c12.56,0,24.24-13.36,33.97-36.28,1.25-2.94,5.5-2.72,6.38.35,13.03,45.68,30.96,73.89,50.75,73.89,22.72,0,42.99-37.2,56.21-95.32.77-3.4,5.53-3.56,6.55-.23,10.94,35.75,25.56,57.59,41.63,57.59,20.98,0,39.5-37.26,50.58-94.1.67-3.41,5.4-3.74,6.53-.45,7.71,22.31,17.56,35.71,28.3,35.71,24.73,0,44.77-70.95,44.77-158.48s-20.05-158.48-44.77-158.48ZM283.07,257.03c-16.4,0-29.7-21.16-29.7-47.27s13.3-47.27,29.7-47.27,29.7,21.16,29.7,47.27-13.3,47.27-29.7,47.27ZM372.15,257.03c-16.4,0-29.7-21.16-29.7-47.27s13.3-47.27,29.7-47.27,29.7,21.16,29.7,47.27-13.3,47.27-29.7,47.27Z"/>
    <path class="st0" d="M541.22,265.75c-22.29,20.43-43.55,31.05-62.64,31.05-.12,0-.24,0-.35,0-10.72-.07-21.08-3.55-30.79-10.32-.88-.62-2.09-.4-2.71.48-.61.88-.4,2.09.48,2.7,10.22,7.13,21.63,10.94,32.99,11.02.13,0,.25,0,.38,0,20.77,0,43.82-11.8,67.79-34.45-1.73,0-3.46-.12-5.15-.48Z"/>
    <path class="st0" d="M575.79,233.86c9.79-9.72,25.61-11.02,37.94-2.88,1.59-.52,3.22-.93,4.87-1.25-.41-.32-.82-.65-1.24-.96-15.13-11.07-35.67-8.85-46.77,5.06-.17.22-.35.43-.52.65.07,0,.13-.03.2-.03,1.84-.18,3.68-.39,5.53-.59Z"/>
    <path class="st0" d="M623.33,276.21c-.25.34-.5.68-.76,1.01-46.01,57.76-93.85,86.58-142.12,85.5-28.17-.59-50.85-11.74-64.92-20.99-.9-.59-2.1-.34-2.69.56-.59.9-.34,2.1.56,2.69,14.5,9.53,37.88,21.02,66.98,21.63.86.02,1.71.03,2.57.03,48.69,0,96.68-29.26,142.67-86.99.77-.96,1.47-1.96,2.11-2.99-1.47-.05-2.93-.19-4.39-.44Z"/>
    <path class="st0" d="M82.08,532.94c-4.7,0-9.4-.94-13.89-2.84-9.17-3.86-16.41-11.45-19.86-20.82-27.68-75.1-28.73-135.79-3.11-180.38,21.42-37.27,58.95-56.06,86.94-61.21,1.06-.19,2.07.5,2.26,1.56.19,1.05-.5,2.07-1.56,2.26-27.13,5-63.52,23.21-84.27,59.32-25.02,43.55-23.89,103.13,3.38,177.11,3.13,8.49,9.42,15.09,17.72,18.58,8.22,3.46,17.23,3.37,25.38-.27,15.29-6.83,22.71-24.57,16.89-40.39-19.91-54.15-22.8-96.5-8.36-122.47,14-25.18,41.39-29.12,42.54-29.27,1.06-.15,2.04.6,2.18,1.67.14,1.06-.61,2.04-1.67,2.18-1.08.14-26.6,3.81-39.67,27.31-13.88,24.95-10.9,66.19,8.61,119.25,6.52,17.73-1.81,37.62-18.95,45.28-4.69,2.09-9.63,3.14-14.58,3.14Z"/>
  </g>
  <path class="st0" d="M667.96,282.3l-129.3-14.47c-7.07-.07-12.8-7.15-12.8-15.83s5.73-15.75,12.8-15.83l129.3-14.47.43,3.86-129.62,14.49c-4.98,0-9.03,5.36-9.03,11.94s4.05,11.94,9.03,11.94h.22s129.4,14.49,129.4,14.49l-.43,3.86Z"/>
  <path class="st0" d="M668.18,282.32c-10.74,0-19.16-13.31-19.16-30.31s8.42-30.31,19.16-30.31,19.16,13.31,19.16,30.31-8.42,30.31-19.16,30.31ZM668.18,225.59c-8.28,0-15.28,12.1-15.28,26.42s7,26.42,15.28,26.42,15.28-12.1,15.28-26.42-7-26.42-15.28-26.42Z"/>
</svg>