<?xml version="1.0" encoding="UTF-8"?>
<svg id="Layer_1" xmlns="http://www.w3.org/2000/svg" version="1.1" viewBox="0 0 766.54 506.07">
  <!-- Generator: Adobe Illustrator 29.1.0, SVG Export Plug-In . SVG Version: 2.1.0 Build 142)  -->
  <defs>
    <style>
      .st0 {
        fill: #3486ff;
      }
    </style>
  </defs>
  <path d="M477.59,373.87c-31.18,0-58.34-13.35-74.77-27.46-1.1-.95-1.23-2.61-.28-3.71s2.61-1.23,3.71-.28c18.51,15.9,51.3,30.78,87.81,24.87,38.53-6.24,74.6-33.29,107.21-80.38.83-1.19,2.46-1.49,3.66-.67,1.19.83,1.49,2.47.67,3.66-33.45,48.32-70.7,76.11-110.7,82.58-5.87.95-11.65,1.39-17.3,1.39Z"/>
  <path d="M477.52,313.22c-19.12,0-32.72-10.95-35.66-13.53-.11-.08-.22-.17-.32-.27l-.28-.28,3.66-3.78c.69.66,17.2,16.02,40.47,11.91,15.17-2.68,30.02-17.7,38.01-31.39.73-1.26,2.34-1.68,3.6-.95,1.26.73,1.68,2.34.95,3.6-7.97,13.67-23.65,30.75-41.64,33.92-3.03.53-5.96.77-8.77.77Z"/>
  <g>
    <ellipse class="st0" cx="58.32" cy="253.17" rx="24.46" ry="147.68"/>
    <ellipse class="st0" cx="11.29" cy="253.17" rx="11.29" ry="85.6"/>
    <path class="st0" d="M434.58,95.95c-10.64,0-20.4,13.28-28.05,35.4-1.13,3.26-5.82,2.94-6.48-.44-10.98-56.34-29.34-93.27-50.13-93.27-15.92,0-30.42,21.65-41.26,57.08-1.01,3.31-5.73,3.15-6.49-.23C289.06,36.87,268.97,0,246.45,0c-19.62,0-37.39,27.96-50.3,73.24-.87,3.05-5.09,3.27-6.33.35-9.64-22.72-21.22-35.96-33.67-35.96-33.61,0-60.86,96.44-60.86,215.41s27.25,215.41,60.86,215.41c12.45,0,24.03-13.24,33.67-35.96,1.24-2.92,5.46-2.7,6.33.35,12.92,45.28,30.69,73.24,50.3,73.24,22.52,0,42.61-36.87,55.71-94.48.77-3.37,5.48-3.53,6.49-.23,10.85,35.43,25.34,57.08,41.26,57.08,20.8,0,39.16-36.93,50.13-93.27.66-3.38,5.35-3.7,6.48-.44,7.64,22.11,17.41,35.4,28.05,35.4,24.51,0,44.38-70.33,44.38-157.09s-19.87-157.09-44.38-157.09ZM280.58,254.78c-16.26,0-29.44-20.98-29.44-46.86s13.18-46.86,29.44-46.86,29.44,20.98,29.44,46.86-13.18,46.86-29.44,46.86ZM368.89,254.78c-16.26,0-29.44-20.98-29.44-46.86s13.18-46.86,29.44-46.86,29.44,20.98,29.44,46.86-13.18,46.86-29.44,46.86Z"/>
    <path d="M332.66,402.42c-43.67,0-80.71-21.09-101.76-42.09-.97-.97-1.15-2.56-.27-3.62,1-1.22,2.81-1.29,3.9-.2,21.95,21.95,62.06,44.03,108.75,40.21,56.36-4.61,110.9-43.76,162.11-116.36,5.81-8.24,7.89-18.19,5.85-28.03-2.02-9.74-7.81-17.95-16.3-23.13-15.94-9.72-36.92-5.31-47.77,10.04-37.66,53.29-75.27,83.15-108.79,86.37-29.94,2.86-50.36-16.36-54.19-20.28-.12-.1-.23-.2-.33-.32l-.5-.49c-1.09-1.05-1.05-2.81.08-3.81h0c1.01-.9,2.54-.87,3.52.06,5.72,5.49,25.33,22.07,50.92,19.6,31.94-3.07,68.25-32.17,104.99-84.17,12.44-17.6,36.51-22.65,54.81-11.5,9.75,5.94,16.4,15.38,18.71,26.56,2.3,11.11-.14,22.82-6.71,32.13-52.15,73.93-108,113.82-165.98,118.57-3.72.3-7.41.45-11.04.45Z"/>
    <path d="M705.49,305.72c-33.66,0-61.05-43.87-61.05-97.8s27.39-97.8,61.05-97.8,61.05,43.87,61.05,97.8-27.39,97.8-61.05,97.8ZM705.49,115.38c-30.76,0-55.79,41.51-55.79,92.54s25.03,92.54,55.79,92.54,55.79-41.51,55.79-92.54-25.03-92.54-55.79-92.54Z"/>
    <path d="M705.12,305.69l-337.26-48.55c-17.13-.17-31.04-22.18-31.04-49.22s13.9-49.06,31.04-49.22l337.26-48.55.75,5.21-337.63,48.6h-.19c-14.32,0-25.97,19.72-25.97,43.96s11.65,43.96,25.97,43.96l.38.03,337.44,48.58-.75,5.21Z"/>
  </g>
</svg>