<?xml version="1.0" encoding="UTF-8"?>
<svg id="Layer_1" xmlns="http://www.w3.org/2000/svg" version="1.1" viewBox="0 0 659.15 510.55">
  <!-- Generator: Adobe Illustrator 29.1.0, SVG Export Plug-In . SVG Version: 2.1.0 Build 142)  -->
  <defs>
    <style>
      .st0 {
        fill: #0a253b;
      }

      .st1 {
        fill: #072133;
      }

      .st2 {
        fill: #3486ff;
      }
    </style>
  </defs>
  <path class="st2" d="M58.84,106.42c-13.63,0-24.67,66.7-24.67,148.99,0,82.28,11.05,148.99,24.67,148.99,13.63,0,24.67-66.71,24.67-148.99,0-82.28-11.05-148.99-24.67-148.99Z"/>
  <path class="st2" d="M11.39,169.05c-6.29,0-11.39,38.66-11.39,86.36,0,47.69,5.1,86.36,11.39,86.36,6.29,0,11.39-38.66,11.39-86.36,0-47.69-5.1-86.36-11.39-86.36Z"/>
  <path class="st2" d="M438.43,96.8c-10.74,0-20.58,13.4-28.3,35.71-1.14,3.29-5.87,2.97-6.53-.45-11.07-56.84-29.59-94.1-50.58-94.1-16.07,0-30.69,21.84-41.63,57.59-1.02,3.34-5.78,3.17-6.55-.23C291.62,37.2,271.35,0,248.63,0c-19.79,0-37.72,28.21-50.75,73.89-.88,3.08-5.13,3.3-6.38.35-9.73-22.92-21.41-36.28-33.97-36.28-33.91,0-61.4,97.3-61.4,217.32,0,120.02,27.49,217.32,61.4,217.32,12.56,0,24.24-13.36,33.97-36.28,1.25-2.94,5.5-2.72,6.38.35,13.03,45.68,30.96,73.89,50.75,73.89,22.72,0,42.99-37.2,56.21-95.32.77-3.4,5.53-3.56,6.55-.23,10.94,35.75,25.56,57.59,41.63,57.59,20.98,0,39.5-37.26,50.58-94.1.67-3.41,5.4-3.74,6.53-.45,7.71,22.31,17.56,35.71,28.3,35.71,24.73,0,44.77-70.95,44.77-158.48,0-87.53-20.05-158.48-44.77-158.48ZM283.07,257.03c-16.4,0-29.7-21.16-29.7-47.27s13.3-47.27,29.7-47.27c16.4,0,29.7,21.16,29.7,47.27,0,26.11-13.3,47.27-29.7,47.27ZM372.15,257.03c-16.4,0-29.7-21.16-29.7-47.27s13.3-47.27,29.7-47.27c16.4,0,29.7,21.16,29.7,47.27,0,26.11-13.3,47.27-29.7,47.27Z"/>
  <path class="st1" d="M436.56,268.96c11.77,4.1,23.78,4.67,34.74,1.66,24.97-6.85,48.39-32.34,68.2-74.04-1.53-.19-2.64-.99-3.31-2.07-19.33,40.88-41.96,65.8-65.91,72.37-10.34,2.83-21.25,2.3-32.44-1.59-1.01-.35-2.12.18-2.47,1.2-.35,1.01.18,2.12,1.2,2.47Z"/>
  <path class="st1" d="M555.56,170.6c7.95-5.52,18.68-7.07,28.83-3.28,8.61,3.21,15.59,9.81,19.17,18.1,1.89,4.37,2.74,8.95,2.56,13.45,1.86.26,3.08,1.44,3.65,2.9.74-5.94-.13-12.07-2.64-17.88-4-9.25-11.79-16.61-21.38-20.2-11.77-4.4-24.26-2.37-33.3,4.37,1.33.37,2.44,1.33,3.11,2.54Z"/>
  <path class="st1" d="M587.55,242.89c-26.28,47.75-58.9,76.9-97.27,86.85-27.28,7.07-52.14,2.49-68.18-2.6-1.03-.33-2.11.24-2.44,1.26-.32,1.02.24,2.11,1.27,2.44,10.44,3.31,24.5,6.41,40.53,6.41,9.37,0,19.41-1.06,29.8-3.75,39.42-10.21,72.84-39.98,99.65-88.65-1.32-.25-2.54-.96-3.35-1.96Z"/>
  <path class="st0" d="M617.16,272.57l-95.27-88.61c-2.78-2.11-4.38-5.41-4.5-9.32-.12-3.77,1.18-7.69,3.65-11.02,5.17-6.98,13.99-9.25,19.7-5.1l112.5,65.36-1.95,3.36-112.77-65.54c-3.99-2.96-10.44-1.07-14.36,4.22-1.95,2.63-2.97,5.68-2.89,8.58.08,2.73,1.16,5,3.03,6.38l.17.14,95.35,88.68-2.64,2.85Z"/>
  <path class="st0" d="M625.7,275.33c-3.11,0-5.97-.84-8.37-2.62-4.26-3.16-6.25-8.72-5.61-15.66.61-6.59,3.54-13.73,8.26-20.09,4.72-6.37,10.69-11.25,16.82-13.75,6.45-2.63,12.36-2.35,16.62.81,4.26,3.16,6.25,8.72,5.61,15.66-.61,6.59-3.55,13.73-8.26,20.09-7.31,9.86-17,15.56-25.07,15.56ZM645.1,225.29c-2.09,0-4.4.5-6.84,1.49-5.48,2.24-10.87,6.66-15.17,12.47-4.3,5.81-6.97,12.25-7.52,18.14-.51,5.54.93,9.87,4.06,12.19,6.65,4.93,19.48-.63,28-12.13h0c4.3-5.81,6.97-12.25,7.52-18.14.51-5.54-.93-9.87-4.06-12.19-1.64-1.22-3.69-1.83-6-1.83Z"/>
</svg>