<?xml version="1.0" encoding="UTF-8"?>
<svg id="Layer_1" xmlns="http://www.w3.org/2000/svg" version="1.1" viewBox="0 0 728.61 632.31">
  <!-- Generator: Adobe Illustrator 29.1.0, SVG Export Plug-In . SVG Version: 2.1.0 Build 142)  -->
  <defs>
    <style>
      .st0 {
        fill: #3486ff;
      }
    </style>
  </defs>
  <ellipse class="st0" cx="67.06" cy="323.09" rx="24.46" ry="147.68"/>
  <ellipse class="st0" cx="20.03" cy="323.09" rx="11.29" ry="85.6"/>
  <path class="st0" d="M443.32,165.87c-10.64,0-20.4,13.28-28.05,35.4-1.13,3.26-5.82,2.94-6.48-.44-10.98-56.34-29.34-93.27-50.13-93.27-15.92,0-30.42,21.65-41.26,57.08-1.01,3.31-5.73,3.15-6.49-.23-13.1-57.61-33.19-94.48-55.71-94.48-19.62,0-37.39,27.96-50.3,73.24-.87,3.05-5.09,3.27-6.33.35-9.64-22.72-21.22-35.96-33.67-35.96-33.61,0-60.86,96.44-60.86,215.41s27.25,215.41,60.86,215.41c12.45,0,24.03-13.24,33.67-35.96,1.24-2.92,5.46-2.7,6.33.35,12.92,45.28,30.69,73.24,50.3,73.24,22.52,0,42.61-36.87,55.71-94.48.77-3.37,5.48-3.53,6.49-.23,10.85,35.43,25.34,57.08,41.26,57.08,20.8,0,39.16-36.93,50.13-93.27.66-3.38,5.35-3.7,6.48-.44,7.64,22.11,17.41,35.4,28.05,35.4,24.51,0,44.38-70.33,44.38-157.09s-19.87-157.09-44.38-157.09ZM289.33,324.7c-16.26,0-29.44-20.98-29.44-46.86s13.18-46.86,29.44-46.86,29.44,20.98,29.44,46.86-13.18,46.86-29.44,46.86ZM377.63,324.7c-16.26,0-29.44-20.98-29.44-46.86s13.18-46.86,29.44-46.86,29.44,20.98,29.44,46.86-13.18,46.86-29.44,46.86Z"/>
  <path d="M451.93,401.68c-1.45,0-2.63-1.18-2.63-2.63s1.18-2.63,2.63-2.63c31.04,0,75.01-12.73,105.33-48.46,19.66-23.17,31.58-51.34,36.43-86.11.2-1.44,1.54-2.46,2.97-2.24,1.44.2,2.44,1.53,2.24,2.97-4.99,35.79-17.3,64.84-37.63,88.79-31.49,37.1-77.13,50.32-109.34,50.32Z"/>
  <path d="M450.59,325.13c-.06,0-.12,0-.18,0h-.47c-1.51-.02-2.69-1.29-2.6-2.8h0c.08-1.37,1.19-2.45,2.57-2.48,7.92-.15,33.23-2.26,49.56-22.06,20.42-24.76,25.51-71.01,14.72-133.76-2.79-16.25,1.96-29.47,13.74-38.24,1.41-1.05,3.52-.48,4.11,1.39.33,1.06-.12,2.2-1.01,2.86-10.06,7.51-14.09,18.95-11.66,33.1,11.05,64.31,5.57,112.03-15.85,138-19.15,23.22-47.21,24.04-52.67,23.98-.09,0-.17.01-.26.01Z"/>
  <path d="M556.02,254.88c-.73,0-1.45-.3-1.97-.88-.97-1.09-.87-2.75.22-3.72,9.8-8.72,29.22-41.88,24.23-59.17-1.6-5.56-5.61-8.81-12.25-9.92l-.32-.02c-9.94-1.07-17.66,7.58-23.08,25.71-.42,1.39-1.88,2.19-3.28,1.77-1.39-.42-2.18-1.88-1.77-3.28,6.25-20.91,15.87-30.81,28.63-29.44l.47.04c8.81,1.47,14.49,6.19,16.65,13.68,5.84,20.26-15.3,55.23-25.79,64.56-.5.45-1.13.67-1.75.67Z"/>
  <path d="M46.92,632.31c-7.84,0-15.51-2.28-22.27-6.72-9.49-6.23-16.04-16.24-17.98-27.46-15.4-89.16-4.12-156.85,33.53-201.21,31.44-37.05,77-50.28,109.21-50.32,1.42,0,2.69,1.07,2.76,2.49.08,1.52-1.13,2.77-2.63,2.77-31.04,0-75.01,12.73-105.33,48.46C7.62,443.44-3.26,509.69,11.86,597.24c1.72,9.94,7.29,18.45,15.68,23.96,8.31,5.46,18.22,7.17,27.88,4.83,18.14-4.4,29.86-22.36,26.68-40.88-11.06-64.3-5.57-112.02,15.85-138,19.12-23.19,47.19-24.08,52.66-23.97.15-.02.3-.02.45,0l2.51.02c1.51,0,2.69,1.28,2.61,2.78h0c-.08,1.38-1.21,2.45-2.59,2.47-8.25.14-35.21,2.21-51.58,22.06-20.42,24.76-25.51,71.01-14.72,133.76,3.65,21.24-9.8,41.83-30.62,46.88-3.24.79-6.51,1.17-9.74,1.17Z"/>
  <path d="M727.83,205.25l-41.05-161.23c-.82-3.21-2.7-5.96-5.28-7.96-.35-.34-.74-.65-1.17-.91L623.68.93c-1.35-.81-2.88-1.05-4.36-.85-1.68-.16-3.39-.09-5.04.33l-88.07,22.42c-6.54,1.67-12.06,5.8-15.53,11.64s-4.46,12.66-2.8,19.2l36.2,142.17c1.07-2.4,2.29-4.73,3.68-6.87l-34.78-136.6c-1.32-5.18-.53-10.59,2.22-15.22,2.75-4.63,7.12-7.91,12.3-9.23l86.05-21.91c-.07.75-.03,1.52.16,2.29l8.59,33.75c1.25,4.9,4.35,9.03,8.72,11.63,2.99,1.78,6.32,2.69,9.7,2.69,1.56,0,3.14-.2,4.69-.59l33.09-8.42c1.27-.32,2.36-.99,3.2-1.88l41.01,161.07c2.74,10.74-3.78,21.71-14.52,24.45l-121.14,30.84c-5.18,1.32-10.58.53-15.22-2.22-4.63-2.75-7.91-7.12-9.23-12.3l-.49-1.91c-1.43,1.86-2.81,3.49-4.11,4.86,1.91,5.81,5.79,10.7,11.13,13.87,3.99,2.37,8.44,3.59,12.95,3.59,2.09,0,4.19-.26,6.26-.79l121.14-30.84c13.56-3.45,21.78-17.29,18.33-30.85ZM677.22,42.26l-33.09,8.42c-3.54.9-7.23.36-10.4-1.52-3.17-1.88-5.41-4.87-6.31-8.41l-8.59-33.75c-.21-.84.3-1.33.53-1.5.05-.04.14-.08.22-.13,1.15.2,2.26.6,3.26,1.2l54.53,32.94c.19.12.35.27.53.4.4.42.41.93.37,1.17-.04.28-.23.96-1.06,1.18Z"/>
</svg>