<?xml version="1.0" encoding="UTF-8"?>
<svg id="Layer_1" xmlns="http://www.w3.org/2000/svg" version="1.1" viewBox="0 0 457.06 482.92">
  <!-- Generator: Adobe Illustrator 29.1.0, SVG Export Plug-In . SVG Version: 2.1.0 Build 142)  -->
  <defs>
    <style>
      .st0 {
        fill: #3486ff;
      }
    </style>
  </defs>
  <ellipse class="st0" cx="55.65" cy="241.59" rx="23.34" ry="140.93"/>
  <ellipse class="st0" cx="10.77" cy="241.59" rx="10.77" ry="81.68"/>
  <path class="st0" d="M414.7,91.56c-10.16,0-19.47,12.67-26.77,33.78-1.07,3.11-5.55,2.81-6.18-.42-10.47-53.76-27.99-89.01-47.84-89.01-15.2,0-29.03,20.66-39.38,54.47-.97,3.15-5.47,3-6.2-.22C275.84,35.18,256.67,0,235.18,0c-18.72,0-35.68,26.68-48,69.89-.83,2.91-4.85,3.12-6.04.33-9.2-21.68-20.25-34.32-32.13-34.32-32.07,0-58.08,92.03-58.08,205.56s26,205.56,58.08,205.56c11.88,0,22.93-12.64,32.13-34.32,1.18-2.79,5.21-2.58,6.04.33,12.33,43.2,29.28,69.89,48,69.89,21.49,0,40.66-35.18,53.16-90.16.73-3.22,5.23-3.37,6.2-.22,10.35,33.81,24.18,54.47,39.38,54.47,19.85,0,37.37-35.24,47.84-89.01.63-3.23,5.11-3.53,6.18-.42,7.29,21.1,16.61,33.78,26.77,33.78,23.39,0,42.35-67.11,42.35-149.9s-18.96-149.9-42.35-149.9ZM172.35,226.83c-15.51,0-28.09-20.02-28.09-44.71s12.58-44.71,28.09-44.71,28.09,20.02,28.09,44.71-12.58,44.71-28.09,44.71ZM256.62,226.83c-15.51,0-28.09-20.02-28.09-44.71s12.58-44.71,28.09-44.71,28.09,20.02,28.09,44.71-12.58,44.71-28.09,44.71Z"/>
</svg>