<?xml version="1.0" encoding="UTF-8"?>
<svg id="Layer_1" xmlns="http://www.w3.org/2000/svg" version="1.1" viewBox="0 0 742.71 773">
  <!-- Generator: Adobe Illustrator 29.1.0, SVG Export Plug-In . SVG Version: 2.1.0 Build 142)  -->
  <defs>
    <style>
      .st0 {
        fill: #3486ff;
      }
    </style>
  </defs>
  <ellipse class="st0" cx="67.06" cy="463.77" rx="24.46" ry="147.68"/>
  <ellipse class="st0" cx="20.03" cy="463.77" rx="11.29" ry="85.6"/>
  <path class="st0" d="M443.32,306.55c-10.64,0-20.4,13.28-28.05,35.4-1.13,3.26-5.82,2.94-6.48-.44-10.98-56.34-29.34-93.27-50.13-93.27-15.92,0-30.42,21.65-41.26,57.08-1.01,3.31-5.73,3.15-6.49-.23-13.1-57.61-33.19-94.48-55.71-94.48-19.62,0-37.39,27.96-50.3,73.24-.87,3.05-5.09,3.27-6.33.35-9.64-22.72-21.22-35.96-33.67-35.96-33.61,0-60.86,96.44-60.86,215.41s27.25,215.41,60.86,215.41c12.45,0,24.03-13.24,33.67-35.96,1.24-2.92,5.46-2.7,6.33.35,12.92,45.28,30.69,73.24,50.3,73.24,22.52,0,42.61-36.87,55.71-94.48.77-3.37,5.48-3.53,6.49-.23,10.85,35.43,25.34,57.08,41.26,57.08,20.8,0,39.16-36.93,50.13-93.27.66-3.38,5.35-3.7,6.48-.44,7.64,22.11,17.41,35.4,28.05,35.4,24.51,0,44.38-70.33,44.38-157.09s-19.87-157.09-44.38-157.09ZM289.33,465.38c-16.26,0-29.44-20.98-29.44-46.86s13.18-46.86,29.44-46.86,29.44,20.98,29.44,46.86-13.18,46.86-29.44,46.86ZM377.63,465.38c-16.26,0-29.44-20.98-29.44-46.86s13.18-46.86,29.44-46.86,29.44,20.98,29.44,46.86-13.18,46.86-29.44,46.86Z"/>
  <path d="M445.84,491.3c5.53.05,33.52-.76,52.67-23.98,21.42-25.97,26.9-73.69,15.85-138-3.02-17.56,7.37-34.59,23.92-40.06,0-.04,0-.07,0-.11v-1.63c0-1.36.23-2.67.62-3.92-20.3,5.42-33.32,25.69-29.73,46.62,10.79,62.75,5.69,109-14.72,133.76-16.36,19.83-42.21,21.91-50.23,22.06-1.37.03-2.48,1.11-2.57,2.48h0c-.09,1.5,1.1,2.78,2.6,2.79h1.14c.15.02.3.02.45,0Z"/>
  <path d="M586.1,441.4c-5.99,28.88-17.28,53.2-33.86,72.74-30.32,35.73-74.29,48.46-105.33,48.46-1.45,0-2.63,1.18-2.63,2.63s1.18,2.63,2.63,2.63c32.21,0,77.86-13.22,109.34-50.32,18.1-21.33,30.09-48.08,35.96-79.99-1.49,1.8-3.53,3.18-6.11,3.85Z"/>
  <path d="M580.5,301.77c.75,1.86,1.09,3.9,1.03,5.92,1.44,2.97,2.47,6.17,3.06,9.54,4.61,26.67,6.74,51.32,6.53,73.98.76,1.14,1.37,2.48,1.79,4.03,1.51,5.54,1.54,11.22,2.16,16.88.08.68.15,1.36.23,2.04,2.53-29,.73-61.62-5.52-97.83-1.31-7.56-4.75-14.53-9.75-20.19.52,1.82.65,3.74.47,5.63Z"/>
  <path d="M46.92,773c-7.84,0-15.51-2.28-22.27-6.72-9.49-6.23-16.04-16.24-17.98-27.46-15.4-89.15-4.12-156.85,33.53-201.21,31.44-37.05,77-50.28,109.21-50.32,1.42,0,2.69,1.07,2.76,2.49.08,1.52-1.13,2.77-2.63,2.77-31.04,0-75.01,12.73-105.33,48.46-36.59,43.11-47.47,109.36-32.35,196.91,1.72,9.94,7.29,18.44,15.68,23.96,8.31,5.46,18.21,7.17,27.88,4.83,18.14-4.4,29.86-22.36,26.68-40.88-11.05-64.3-5.57-112.02,15.85-138,19.12-23.19,47.23-24.08,52.66-23.97.15-.01.3-.02.45,0l3.02.02c1.5,0,2.69,1.28,2.61,2.78h0c-.08,1.38-1.21,2.45-2.59,2.47-8.32.13-35.7,2.18-52.09,22.06-20.42,24.76-25.51,71.01-14.72,133.76,3.65,21.24-9.8,41.83-30.62,46.88-3.24.79-6.51,1.17-9.74,1.17Z"/>
  <path d="M552.74,420.4l-3.5-3.93c9.8-8.72,29.22-41.88,24.23-59.17-1.6-5.56-5.61-8.81-12.25-9.92l-.32-.02c-9.94-1.08-17.66,7.58-23.08,25.71l-5.04-1.51c6.25-20.91,15.91-30.82,28.63-29.44l.47.04c8.81,1.47,14.49,6.19,16.65,13.68,5.84,20.26-15.3,55.23-25.79,64.56Z"/>
  <path d="M382.37,296.18c-13.08,0-24.54-9.64-26.43-22.95l-27.77-195.32c-1-7.06.8-14.1,5.09-19.8,4.28-5.71,10.53-9.4,17.6-10.41L684.46.27c14.58-2.07,28.13,8.1,30.21,22.69l27.77,195.32c2.07,14.58-8.1,28.13-22.69,30.21l-333.61,47.43c-1.27.18-2.53.27-3.78.27ZM688.26,5.26c-1.02,0-2.04.07-3.06.22l-333.61,47.43c-11.71,1.66-19.88,12.55-18.22,24.26l27.77,195.32c1.66,11.71,12.54,19.89,24.26,18.22l333.61-47.43.37,2.61-.37-2.61c11.71-1.66,19.88-12.55,18.22-24.26l-27.77-195.32c-.81-5.67-3.77-10.69-8.35-14.13-3.75-2.82-8.22-4.3-12.84-4.3Z"/>
  <path d="M515.31,144.15c-6.07.5-11.56-.99-16.47-4.47-4.91-3.48-8.9-8.35-11.97-14.63-3.08-6.27-4.94-13.42-5.6-21.47-.66-8.04.02-15.4,2.03-22.1,2.01-6.69,5.16-12.1,9.44-16.26,4.28-4.15,9.46-6.47,15.53-6.97,6.07-.5,11.51.96,16.34,4.36,4.82,3.41,8.81,8.24,11.96,14.5,3.15,6.27,5.06,13.42,5.72,21.46.66,8.04-.06,15.41-2.15,22.1-2.1,6.7-5.24,12.16-9.43,16.38-4.2,4.23-9.33,6.59-15.4,7.08ZM514.9,139.23c5.08-.42,8.95-3.58,11.61-9.5,2.65-5.92,3.4-15.92,2.25-30.04-1.16-14.11-3.52-23.82-7.1-29.15-3.57-5.32-7.91-7.78-12.99-7.36-5.09.42-8.96,3.54-11.62,9.38-2.66,5.83-3.41,15.8-2.25,29.91,1.16,14.11,3.52,23.87,7.1,29.27,3.58,5.4,7.91,7.9,13,7.48ZM504.04,239.46c-2.63.22-3.38-.88-2.25-3.28l89.04-180.22c.54-1.36,1.64-2.11,3.28-2.25l2.71-.22c2.62-.21,3.37.88,2.25,3.28l-89.04,180.22c-.55,1.37-1.65,2.12-3.29,2.25l-2.71.22ZM592.59,234.69c-6.07.5-11.56-1-16.47-4.47-4.91-3.48-8.9-8.35-11.98-14.63-3.07-6.27-4.94-13.43-5.6-21.47-.66-8.04.02-15.4,2.03-22.1,2.01-6.69,5.16-12.1,9.45-16.25,4.28-4.15,9.46-6.48,15.53-6.97,6.07-.5,11.51.96,16.34,4.36,4.82,3.4,8.81,8.24,11.97,14.5,3.15,6.27,5.06,13.42,5.72,21.46.66,8.04-.06,15.41-2.15,22.1-2.1,6.7-5.24,12.16-9.44,16.38-4.2,4.22-9.33,6.59-15.4,7.08ZM592.18,229.77c5.08-.42,8.95-3.58,11.61-9.5,2.65-5.92,3.4-15.92,2.25-30.04-1.16-14.11-3.52-23.82-7.1-29.15-3.58-5.32-7.91-7.78-12.99-7.36-5.09.42-8.96,3.54-11.62,9.37-2.66,5.84-3.41,15.81-2.26,29.91,1.16,14.11,3.52,23.87,7.1,29.27,3.58,5.41,7.91,7.9,13,7.48Z"/>
  <g>
    <path d="M549.9,347.55l-9.88-77.55c-1.76.14-3.52.23-5.27.28l10.4,81.64c1.43-1.71,3.01-3.19,4.75-4.37Z"/>
    <path d="M599.44,421.86l-19.92-156.42c-1.75.18-3.49.37-5.24.54l19.94,156.54c1.15,9.04-5.27,17.33-14.3,18.48l-1.43.18c-4.38.56-8.71-.62-12.2-3.32-3.49-2.7-5.72-6.6-6.28-10.98l-2.09-16.38c-1.59,2.15-3.14,4.04-4.59,5.61l1.46,11.44c.74,5.77,3.68,10.91,8.28,14.48,3.86,2.98,8.49,4.56,13.29,4.56.93,0,1.86-.06,2.8-.18l1.43-.18h0c5.77-.74,10.91-3.67,14.48-8.28,3.56-4.6,5.12-10.32,4.39-16.09Z"/>
  </g>
</svg>