<?xml version="1.0" encoding="UTF-8"?>
<svg id="Layer_1" xmlns="http://www.w3.org/2000/svg" version="1.1" viewBox="0 0 693.8 506.07">
  <!-- Generator: Adobe Illustrator 29.1.0, SVG Export Plug-In . SVG Version: 2.1.0 Build 142)  -->
  <defs>
    <style>
      .st0 {
        fill: #3486ff;
      }
    </style>
  </defs>
  <path d="M416.16,442.64c-37.85,0-71.16-15.57-91.74-32.33-1.13-.92-1.3-2.58-.38-3.7.92-1.12,2.58-1.29,3.7-.38,24.06,19.61,66.18,37.51,112.27,28.96,41.17-7.63,77.95-32.62,112.46-76.38.9-1.14,2.55-1.34,3.7-.44,1.14.9,1.34,2.55.44,3.7-35.33,44.81-73.15,70.42-115.63,78.29-8.42,1.56-16.73,2.27-24.82,2.27Z"/>
  <path class="st0" d="M434.58,95.95c-10.64,0-20.4,13.28-28.05,35.4-1.13,3.26-5.82,2.94-6.48-.44-10.98-56.34-29.34-93.27-50.13-93.27-15.92,0-30.42,21.65-41.26,57.08-1.01,3.31-5.73,3.15-6.49-.23C289.06,36.87,268.97,0,246.45,0c-19.62,0-37.39,27.96-50.3,73.24-.87,3.05-5.09,3.27-6.33.35-9.64-22.72-21.22-35.96-33.67-35.96-33.61,0-60.86,96.44-60.86,215.41s27.25,215.41,60.86,215.41c12.45,0,24.03-13.24,33.67-35.96,1.24-2.92,5.46-2.7,6.33.35,12.92,45.28,30.69,73.24,50.3,73.24,22.52,0,42.61-36.87,55.71-94.48.77-3.37,5.48-3.53,6.49-.23,10.85,35.43,25.34,57.08,41.26,57.08,20.8,0,39.16-36.93,50.13-93.27.66-3.38,5.35-3.7,6.48-.44,7.64,22.11,17.41,35.4,28.05,35.4,24.51,0,44.38-70.33,44.38-157.09s-19.87-157.09-44.38-157.09ZM280.58,254.78c-16.26,0-29.44-20.98-29.44-46.86s13.18-46.86,29.44-46.86,29.44,20.98,29.44,46.86-13.18,46.86-29.44,46.86ZM368.89,254.78c-16.26,0-29.44-20.98-29.44-46.86s13.18-46.86,29.44-46.86,29.44,20.98,29.44,46.86-13.18,46.86-29.44,46.86Z"/>
  <ellipse class="st0" cx="58.32" cy="253.17" rx="24.46" ry="147.68"/>
  <ellipse class="st0" cx="11.29" cy="253.17" rx="11.29" ry="85.6"/>
  <path d="M338.22,433.33c-9.01,0-17.85-.79-26.54-2.38-47.87-8.74-82.12-41.68-98.21-69.59-.73-1.26-.29-2.87.96-3.59,1.26-.73,2.87-.3,3.59.96,15.5,26.89,48.49,58.62,94.6,67.04,55.62,10.16,118.45-13.5,186.74-70.32,7.75-6.45,12.34-15.53,12.92-25.55.58-9.93-2.89-19.36-9.74-26.57-12.87-13.52-34.28-14.7-48.74-2.69-50.19,41.69-94.25,60.79-127.47,55.2-32.28-5.43-46.9-33.26-47.5-34.44-.66-1.29-.15-2.88,1.14-3.54,1.29-.67,2.88-.15,3.54,1.14.56,1.09,13.99,26.66,43.7,31.65,31.66,5.34,74.26-13.37,123.23-54.06,16.57-13.77,41.13-12.41,55.91,3.11,7.87,8.27,11.85,19.1,11.19,30.5-.66,11.33-6.05,22.01-14.81,29.29-58.99,49.09-114.19,73.83-164.52,73.84Z"/>
  <path d="M637.37,378.2c-31.11,0-56.43-40.5-56.43-90.27s25.31-90.28,56.43-90.28,56.43,40.5,56.43,90.28-25.31,90.27-56.43,90.27ZM637.37,202.91c-28.21,0-51.16,38.14-51.16,85.01s22.95,85.01,51.16,85.01,51.17-38.14,51.17-85.01-22.95-85.01-51.17-85.01Z"/>
  <rect x="566.99" y="299.54" width="5.26" height="123.29" transform="translate(92.38 837.8) rotate(-77.34)"/>
  <path d="M420.87,321.8c-4.11-7.92-6.19-19.31-6.19-33.87,0-26.6,6.64-42.32,19.19-45.46l195.32-43.88,1.15,5.13-195.26,43.86c-9.74,2.44-15.14,16.77-15.14,40.34,0,13.51,1.94,24.39,5.6,31.45l-4.67,2.42Z"/>
  <rect x="611.67" y="230.37" width="5.26" height="56.85" transform="translate(311.43 852.61) rotate(-85.82)"/>
  <rect x="587.64" y="316.04" width="55.26" height="5.26" transform="translate(-36.98 84.85) rotate(-7.66)"/>
  <path d="M642.65,317.61c-9.1,0-16.23-13.04-16.23-29.69s7.13-29.69,16.23-29.69,16.23,13.04,16.23,29.69-7.13,29.69-16.23,29.69ZM642.65,263.5c-5.19,0-10.97,10.03-10.97,24.42s5.78,24.42,10.97,24.42,10.97-10.03,10.97-24.42-5.78-24.42-10.97-24.42Z"/>
  <path d="M539.53,387.92c-2.05,0-4.14-.28-6.21-.86l-49.41-13.94,1.43-5.07,49.41,13.94c8.62,2.43,17.62-2.01,20.94-10.32l5.14-12.89,4.89,1.95-5.14,12.89c-3.52,8.83-11.97,14.3-21.05,14.3Z"/>
</svg>